<mxfile host="app.diagrams.net" modified="2024-04-16T20:14:00.461Z" agent="Mozilla/5.0 (X11; Ubuntu; Linux x86_64; rv:124.0) Gecko/20100101 Firefox/124.0" version="24.2.5" etag="GJT2fOQvaEVCBKiCddU2" type="github">
  <diagram name="PÃ¡gina-1" id="5mkAcoiqzuZnEb5-gsP5">
    <mxGraphModel>
      <root>
        <mxCell id="0" />
        <mxCell id="1" parent="0" />
      </root>
    </mxGraphModel>
  </diagram>
</mxfile>
